<?xml version="1.0" encoding="UTF-8" standalone="no"?>
<!DOCTYPE svg PUBLIC "-//W3C//DTD SVG 1.1//EN" "http://www.w3.org/Graphics/SVG/1.1/DTD/svg11.dtd">
<svg width="100%" height="100%" viewBox="0 0 1520 1133" version="1.1" xmlns="http://www.w3.org/2000/svg" xmlns:xlink="http://www.w3.org/1999/xlink" xml:space="preserve" xmlns:serif="http://www.serif.com/" style="fill-rule:evenodd;clip-rule:evenodd;stroke-linejoin:round;stroke-miterlimit:2;">
    <g transform="matrix(1,0,0,1,-4707.65,-3893.75)">
        <g transform="matrix(3.92206,0,0,3.92206,-5203.32,-1687.85)">
            <path d="M2642.92,1466.06C2656.39,1452.62 2673.18,1442.43 2691.7,1435.36C2736.91,1418.09 2792.42,1419.46 2834.79,1437.28C2877.93,1455.42 2906.71,1492.72 2913.1,1529.12C2917.41,1553.66 2911.59,1577.81 2893.28,1595.6C2885.44,1603.22 2875.28,1609.69 2862.61,1614.49C2864.34,1632.35 2859.3,1650.64 2845.48,1668.68C2836.62,1680.25 2804.58,1698.78 2766.8,1707.28C2729,1715.78 2685.54,1714.27 2653.95,1686.3C2638.33,1672.46 2625.57,1652.11 2617.88,1623.18C2588.78,1606.83 2562.64,1586.69 2546.01,1567.46C2533.64,1553.16 2526.55,1539.26 2527,1527.74C2528.21,1496.97 2546.22,1478.59 2573.47,1470.06C2592.83,1464.01 2616.93,1462.99 2642.92,1466.06ZM2616.51,1617.71C2611.84,1597.82 2609.46,1574.1 2610.02,1545.95C2610.65,1514.19 2621.8,1488.9 2639.4,1469.73C2615.22,1467.16 2592.83,1468.28 2574.69,1473.96C2549.16,1481.94 2532.21,1499.09 2531.08,1527.9C2530.66,1538.64 2537.56,1551.46 2549.09,1564.79C2564.83,1582.98 2589.22,1601.97 2616.51,1617.71ZM2858.57,1615.94C2847.72,1619.6 2835.15,1622.1 2820.76,1623.16C2787.44,1625.62 2744.24,1620.4 2689.78,1604.06C2688.7,1603.74 2688.09,1602.6 2688.41,1601.52C2688.74,1600.44 2689.88,1599.83 2690.95,1600.15C2744.81,1616.31 2787.52,1621.53 2820.45,1619.09C2834.85,1618.03 2847.37,1615.5 2858.11,1611.79C2855.97,1596.75 2848.84,1582.07 2838.09,1568.21C2814.14,1537.31 2772.36,1510.43 2727.18,1492.36C2699.81,1481.41 2671.18,1473.7 2644.49,1470.32C2626.33,1489.08 2614.73,1514.17 2614.1,1546.03C2613.51,1575.58 2616.18,1600.15 2621.37,1620.45C2623.35,1621.56 2625.35,1622.64 2627.36,1623.71C2658.93,1640.44 2693.26,1652.36 2722.06,1653.51C2740.85,1654.27 2757.26,1650.45 2768.84,1640.17C2769.69,1639.42 2770.98,1639.5 2771.72,1640.34C2772.47,1641.18 2772.39,1642.48 2771.55,1643.22C2759.25,1654.14 2741.86,1658.39 2721.9,1657.59C2692.57,1656.41 2657.6,1644.35 2625.45,1627.31C2624.59,1626.85 2623.72,1626.39 2622.85,1625.92C2630.36,1651.89 2642.2,1670.44 2656.66,1683.24C2687.22,1710.31 2729.32,1711.52 2765.9,1703.3C2802.49,1695.06 2833.66,1677.4 2842.24,1666.2C2855.05,1649.47 2859.89,1632.52 2858.57,1615.94ZM2648.13,1466.73C2674.26,1470.33 2702.07,1477.92 2728.7,1488.57C2774.59,1506.93 2816.98,1534.32 2841.32,1565.71C2852.33,1579.92 2859.69,1594.94 2862.09,1610.33C2873.74,1605.79 2883.14,1599.77 2890.44,1592.68C2907.74,1575.86 2913.16,1553.02 2909.09,1529.82C2902.9,1494.6 2874.95,1458.6 2833.2,1441.04C2791.74,1423.6 2737.41,1422.27 2693.16,1439.17C2676.23,1445.63 2660.79,1454.78 2648.13,1466.73Z" style="fill:rgb(196,46,125);"/>
        </g>
    </g>
</svg>
