<?xml version="1.0" encoding="UTF-8" standalone="no"?>
<!DOCTYPE svg PUBLIC "-//W3C//DTD SVG 1.1//EN" "http://www.w3.org/Graphics/SVG/1.1/DTD/svg11.dtd">
<svg width="100%" height="100%" viewBox="0 0 1434 224" version="1.1" xmlns="http://www.w3.org/2000/svg" xmlns:xlink="http://www.w3.org/1999/xlink" xml:space="preserve" xmlns:serif="http://www.serif.com/" style="fill-rule:evenodd;clip-rule:evenodd;stroke-linejoin:round;stroke-miterlimit:2;">
    <g transform="matrix(1,0,0,1,-5957.59,-1831.5)">
        <g transform="matrix(11.0935,0,0,11.0935,1010.06,-5467.37)">
            <g transform="matrix(1,0,0,1,-1.00367,0)">
                <path d="M446.989,676.663L446.989,663.631L449.629,663.631L449.629,669.151L449.557,669.151C449.557,667.287 449.957,665.873 450.757,664.909C451.557,663.945 452.733,663.463 454.285,663.463L454.765,663.463L454.765,666.367L453.853,666.367C452.725,666.367 451.855,666.669 451.243,667.273C450.631,667.877 450.325,668.747 450.325,669.883L450.325,676.663L446.989,676.663Z" style="fill-rule:nonzero;"/>
            </g>
            <g transform="matrix(1,0,0,1,-0.761275,0)">
                <path d="M462.685,677.119C461.565,677.119 460.585,676.927 459.745,676.543C458.905,676.159 458.209,675.645 457.657,675.001C457.105,674.357 456.689,673.635 456.409,672.835C456.129,672.035 455.989,671.215 455.989,670.375L455.989,669.919C455.989,669.055 456.129,668.221 456.409,667.417C456.689,666.613 457.103,665.893 457.651,665.257C458.199,664.621 458.883,664.115 459.703,663.739C460.523,663.363 461.469,663.175 462.541,663.175C463.949,663.175 465.127,663.485 466.075,664.105C467.023,664.725 467.739,665.533 468.223,666.529C468.707,667.525 468.949,668.599 468.949,669.751L468.949,670.963L457.405,670.963L457.405,668.923L466.849,668.923L465.829,669.919C465.829,669.087 465.707,668.375 465.463,667.783C465.219,667.191 464.855,666.735 464.371,666.415C463.887,666.095 463.277,665.935 462.541,665.935C461.797,665.935 461.169,666.105 460.657,666.445C460.145,666.785 459.759,667.269 459.499,667.897C459.239,668.525 459.109,669.279 459.109,670.159C459.109,670.983 459.235,671.711 459.487,672.343C459.739,672.975 460.129,673.469 460.657,673.825C461.185,674.181 461.861,674.359 462.685,674.359C463.493,674.359 464.153,674.195 464.665,673.867C465.177,673.539 465.505,673.139 465.649,672.667L468.721,672.667C468.537,673.555 468.171,674.335 467.623,675.007C467.075,675.679 466.383,676.199 465.547,676.567C464.711,676.935 463.757,677.119 462.685,677.119Z" style="fill-rule:nonzero;"/>
            </g>
            <g transform="matrix(1,0,0,1,0.118174,0)">
                <path d="M471.205,676.663L471.205,672.823L474.949,672.823L474.949,676.663L471.205,676.663ZM471.205,668.383L471.205,664.543L474.949,664.543L474.949,668.383L471.205,668.383Z" style="fill:rgb(255,72,165);fill-rule:nonzero;"/>
            </g>
            <g transform="matrix(1,0,0,1,1.08777,0)">
                <path d="M476.785,678.103L481.729,657.943L485.065,657.943L480.121,678.103L476.785,678.103Z" style="fill:rgb(255,72,165);fill-rule:nonzero;"/>
            </g>
            <g transform="matrix(1,0,0,1,-1.25212,0)">
                <path d="M486.049,678.103L490.993,657.943L494.329,657.943L489.385,678.103L486.049,678.103Z" style="fill:rgb(255,72,165);fill-rule:nonzero;"/>
            </g>
            <g transform="matrix(1,0,0,1,-1.78501,0)">
                <path d="M501.445,677.071C499.645,677.071 498.239,676.693 497.227,675.937C496.215,675.181 495.681,674.131 495.625,672.787L498.625,672.787C498.673,673.235 498.923,673.641 499.375,674.005C499.827,674.369 500.533,674.551 501.493,674.551C502.285,674.551 502.919,674.407 503.395,674.119C503.871,673.831 504.109,673.443 504.109,672.955C504.109,672.523 503.929,672.179 503.569,671.923C503.209,671.667 502.593,671.495 501.721,671.407L500.569,671.287C499.113,671.135 497.993,670.721 497.209,670.045C496.425,669.369 496.033,668.475 496.033,667.363C496.033,666.467 496.257,665.715 496.705,665.107C497.153,664.499 497.773,664.037 498.565,663.721C499.357,663.405 500.265,663.247 501.289,663.247C502.897,663.247 504.197,663.601 505.189,664.309C506.181,665.017 506.701,666.051 506.749,667.411L503.749,667.411C503.709,666.955 503.483,666.567 503.071,666.247C502.659,665.927 502.057,665.767 501.265,665.767C500.569,665.767 500.027,665.903 499.639,666.175C499.251,666.447 499.057,666.803 499.057,667.243C499.057,667.651 499.213,667.967 499.525,668.191C499.837,668.415 500.345,668.567 501.049,668.647L502.201,668.767C503.737,668.927 504.943,669.351 505.819,670.039C506.695,670.727 507.133,671.659 507.133,672.835C507.133,673.691 506.897,674.437 506.425,675.073C505.953,675.709 505.291,676.201 504.439,676.549C503.587,676.897 502.589,677.071 501.445,677.071Z" style="fill-rule:nonzero;"/>
            </g>
            <g transform="matrix(1,0,0,1,-1.57065,0)">
                <path d="M515.725,677.119C514.605,677.119 513.625,676.927 512.785,676.543C511.945,676.159 511.249,675.645 510.697,675.001C510.145,674.357 509.729,673.635 509.449,672.835C509.169,672.035 509.029,671.215 509.029,670.375L509.029,669.919C509.029,669.055 509.169,668.221 509.449,667.417C509.729,666.613 510.143,665.893 510.691,665.257C511.239,664.621 511.923,664.115 512.743,663.739C513.563,663.363 514.509,663.175 515.581,663.175C516.989,663.175 518.167,663.485 519.115,664.105C520.063,664.725 520.779,665.533 521.263,666.529C521.747,667.525 521.989,668.599 521.989,669.751L521.989,670.963L510.445,670.963L510.445,668.923L519.889,668.923L518.869,669.919C518.869,669.087 518.747,668.375 518.503,667.783C518.259,667.191 517.895,666.735 517.411,666.415C516.927,666.095 516.317,665.935 515.581,665.935C514.837,665.935 514.209,666.105 513.697,666.445C513.185,666.785 512.799,667.269 512.539,667.897C512.279,668.525 512.149,669.279 512.149,670.159C512.149,670.983 512.275,671.711 512.527,672.343C512.779,672.975 513.169,673.469 513.697,673.825C514.225,674.181 514.901,674.359 515.725,674.359C516.533,674.359 517.193,674.195 517.705,673.867C518.217,673.539 518.545,673.139 518.689,672.667L521.761,672.667C521.577,673.555 521.211,674.335 520.663,675.007C520.115,675.679 519.423,676.199 518.587,676.567C517.751,676.935 516.797,677.119 515.725,677.119Z" style="fill-rule:nonzero;"/>
            </g>
            <g transform="matrix(1,0,0,1,-1.7229,0)">
                <path d="M524.773,676.663L524.773,663.631L527.413,663.631L527.413,669.151L527.341,669.151C527.341,667.287 527.741,665.873 528.541,664.909C529.341,663.945 530.517,663.463 532.069,663.463L532.549,663.463L532.549,666.367L531.637,666.367C530.509,666.367 529.639,666.669 529.027,667.273C528.415,667.877 528.109,668.747 528.109,669.883L528.109,676.663L524.773,676.663Z" style="fill-rule:nonzero;"/>
            </g>
            <g transform="matrix(1,0,0,1,-1.60276,0)">
                <path d="M542.437,677.095C541.365,677.095 540.421,676.867 539.605,676.411C538.789,675.955 538.147,675.289 537.679,674.413C537.211,673.537 536.957,672.475 536.917,671.227L537.421,671.227L537.421,676.663L534.781,676.663L534.781,659.143L538.117,659.143L538.117,667.915L537.229,669.271C537.285,667.927 537.549,666.807 538.021,665.911C538.493,665.015 539.129,664.343 539.929,663.895C540.729,663.447 541.633,663.223 542.641,663.223C543.545,663.223 544.365,663.391 545.101,663.727C545.837,664.063 546.467,664.531 546.991,665.131C547.515,665.731 547.917,666.433 548.197,667.237C548.477,668.041 548.617,668.915 548.617,669.859L548.617,670.363C548.617,671.307 548.475,672.185 548.191,672.997C547.907,673.809 547.493,674.523 546.949,675.139C546.405,675.755 545.753,676.235 544.993,676.579C544.233,676.923 543.381,677.095 542.437,677.095ZM541.681,674.287C542.401,674.287 543.031,674.109 543.571,673.753C544.111,673.397 544.531,672.905 544.831,672.277C545.131,671.649 545.281,670.927 545.281,670.111C545.281,669.287 545.129,668.569 544.825,667.957C544.521,667.345 544.101,666.871 543.565,666.535C543.029,666.199 542.401,666.031 541.681,666.031C541.033,666.031 540.431,666.177 539.875,666.469C539.319,666.761 538.871,667.185 538.531,667.741C538.191,668.297 538.021,668.967 538.021,669.751L538.021,670.711C538.021,671.463 538.197,672.105 538.549,672.637C538.901,673.169 539.357,673.577 539.917,673.861C540.477,674.145 541.065,674.287 541.681,674.287Z" style="fill-rule:nonzero;"/>
            </g>
            <g transform="matrix(1,0,0,1,-1.44642,0)">
                <path d="M559.429,676.663L559.429,672.799L558.877,672.799L558.877,668.503C558.877,667.759 558.693,667.201 558.325,666.829C557.957,666.457 557.393,666.271 556.633,666.271C556.233,666.271 555.753,666.279 555.193,666.295C554.633,666.311 554.069,666.331 553.501,666.355C552.933,666.379 552.425,666.407 551.977,666.439L551.977,663.607C552.345,663.575 552.759,663.545 553.219,663.517C553.679,663.489 554.155,663.469 554.647,663.457C555.139,663.445 555.601,663.439 556.033,663.439C557.369,663.439 558.483,663.617 559.375,663.973C560.267,664.329 560.939,664.883 561.391,665.635C561.843,666.387 562.069,667.371 562.069,668.587L562.069,676.663L559.429,676.663ZM555.229,676.999C554.285,676.999 553.459,676.833 552.751,676.501C552.043,676.169 551.493,675.689 551.101,675.061C550.709,674.433 550.513,673.679 550.513,672.799C550.513,671.847 550.747,671.065 551.215,670.453C551.683,669.841 552.345,669.385 553.201,669.085C554.057,668.785 555.061,668.635 556.213,668.635L559.237,668.635L559.237,670.627L556.165,670.627C555.405,670.627 554.821,670.813 554.413,671.185C554.005,671.557 553.801,672.043 553.801,672.643C553.801,673.235 554.005,673.713 554.413,674.077C554.821,674.441 555.405,674.623 556.165,674.623C556.629,674.623 557.059,674.539 557.455,674.371C557.851,674.203 558.179,673.917 558.439,673.513C558.699,673.109 558.845,672.551 558.877,671.839L559.693,672.775C559.613,673.687 559.393,674.455 559.033,675.079C558.673,675.703 558.177,676.179 557.545,676.507C556.913,676.835 556.141,676.999 555.229,676.999Z" style="fill-rule:nonzero;"/>
            </g>
            <g transform="matrix(1,0,0,1,-2.37397,0)">
                <path d="M565.645,676.663L565.645,663.631L568.285,663.631L568.285,669.223L568.045,669.223C568.045,667.903 568.219,666.799 568.567,665.911C568.915,665.023 569.439,664.353 570.139,663.901C570.839,663.449 571.705,663.223 572.737,663.223L572.881,663.223C574.441,663.223 575.621,663.725 576.421,664.729C577.221,665.733 577.621,667.227 577.621,669.211L577.621,676.663L574.285,676.663L574.285,668.911C574.285,668.111 574.055,667.463 573.595,666.967C573.135,666.471 572.505,666.223 571.705,666.223C570.889,666.223 570.231,666.477 569.731,666.985C569.231,667.493 568.981,668.167 568.981,669.007L568.981,676.663L565.645,676.663Z" style="fill-rule:nonzero;"/>
            </g>
        </g>
    </g>
</svg>
